<svg width="14" height="14" viewBox="0 0 14 14" fill="none" xmlns="http://www.w3.org/2000/svg">
<path d="M7.21875 3.23828C6.77295 2.69043 5.68262 2.19629 4.46338 2.19629C2.85742 2.19629 1.56836 3.01807 1.25146 3.79688V11.8643C1.25146 12.3047 1.53613 12.4766 1.85303 12.4766C2.10547 12.4766 2.24512 12.4014 2.40088 12.2832C2.77686 11.9717 3.3999 11.6118 4.46338 11.6118C5.5376 11.6118 6.25732 11.9663 6.56885 12.2456C6.71924 12.3691 6.90186 12.4766 7.21875 12.4766C7.53564 12.4766 7.70752 12.353 7.86328 12.2456C8.20166 11.9878 8.8999 11.6118 9.96875 11.6118C11.0376 11.6118 11.6714 11.9771 12.0312 12.2832C12.1924 12.4014 12.332 12.4766 12.5791 12.4766C12.896 12.4766 13.1807 12.3047 13.1807 11.8643V3.79688C12.8638 3.01807 11.5747 2.19629 9.96875 2.19629C8.75488 2.19629 7.66455 2.69043 7.21875 3.23828ZM2.18066 4.0708C2.30957 3.71094 3.15283 3.06641 4.46338 3.06641C5.78467 3.06641 6.63867 3.71631 6.75146 4.0708V11.397C6.19287 10.9834 5.36035 10.7471 4.46338 10.7471C3.56641 10.7471 2.73389 10.9834 2.18066 11.4185V4.0708ZM12.2515 4.0708V11.4185C11.6982 10.9834 10.8657 10.7471 9.96875 10.7471C9.07178 10.7471 8.24463 10.9834 7.68066 11.397V4.0708C7.79346 3.71631 8.65283 3.06641 9.96875 3.06641C11.2847 3.06641 12.1226 3.71094 12.2515 4.0708Z" fill="#007AFF"/>
</svg>
