<svg width="14" height="14" viewBox="0 0 14 14" fill="none" xmlns="http://www.w3.org/2000/svg">
<path d="M2.9126 12.584C3.13818 12.584 3.3208 12.4067 3.3208 12.1812V9.19482C3.45508 9.13574 3.95996 8.94238 4.74951 8.94238C6.73682 8.94238 7.98291 9.91455 9.87354 9.91455C10.7114 9.91455 11.0229 9.82324 11.4312 9.64062C11.8018 9.47412 12.0435 9.19482 12.0435 8.70068V3.24902C12.0435 2.95898 11.7964 2.79248 11.4849 2.79248C11.2217 2.79248 10.7275 3.01807 9.80371 3.01807C7.91309 3.01807 6.67236 2.0459 4.67969 2.0459C3.8418 2.0459 3.5249 2.13721 3.1167 2.31982C2.74609 2.48633 2.50439 2.76562 2.50439 3.25439V12.1812C2.50439 12.4014 2.69238 12.584 2.9126 12.584ZM9.87354 9.10352C8.08496 9.10352 6.81738 8.13135 4.74951 8.13135C4.15869 8.13135 3.62158 8.20117 3.3208 8.32471V3.28125C3.396 3.104 3.8418 2.85693 4.67969 2.85693C6.57031 2.85693 7.83252 3.8291 9.80371 3.8291C10.3892 3.8291 10.8726 3.75928 11.2324 3.65723V8.6792C11.1572 8.85645 10.7114 9.10352 9.87354 9.10352Z" fill="#007AFF"/>
</svg>
