<svg width="14" height="14" viewBox="0 0 14 14" fill="none" xmlns="http://www.w3.org/2000/svg">
<path d="M2.80371 12.1919H11.7896C12.751 12.1919 13.3149 11.6333 13.3149 10.5269V5.01074C13.3149 3.9043 12.7456 3.3457 11.6284 3.3457H6.47217C6.10693 3.3457 5.88672 3.25977 5.61816 3.02881L5.29053 2.76025C4.93604 2.45947 4.66211 2.36279 4.13037 2.36279H2.59961C1.65967 2.36279 1.11719 2.8999 1.11719 3.97949V10.5269C1.11719 11.6387 1.68115 12.1919 2.80371 12.1919ZM1.98193 4.02783C1.98193 3.49609 2.26123 3.22217 2.77686 3.22217H3.91016C4.26465 3.22217 4.47949 3.31348 4.75342 3.54443L5.08105 3.81836C5.43018 4.1084 5.71484 4.21045 6.24658 4.21045H11.6123C12.144 4.21045 12.4502 4.50049 12.4502 5.05908V5.36523H1.98193V4.02783ZM2.81445 11.3271C2.27734 11.3271 1.98193 11.0425 1.98193 10.4839V6.17627H12.4502V10.4893C12.4502 11.0425 12.144 11.3271 11.6123 11.3271H2.81445Z" fill="#007AFF"/>
</svg>
