<svg width="14" height="14" viewBox="0 0 14 14" fill="none" xmlns="http://www.w3.org/2000/svg">
<path d="M2.2627 4.74219C2.63867 4.74219 2.93945 4.44141 2.93945 4.0708C2.93945 3.69482 2.63867 3.39404 2.2627 3.39404C1.88672 3.39404 1.58594 3.69482 1.58594 4.0708C1.58594 4.44141 1.88672 4.74219 2.2627 4.74219ZM4.63672 4.50049H11.9736C12.2153 4.50049 12.4087 4.3125 12.4087 4.0708C12.4087 3.82373 12.2153 3.63574 11.9736 3.63574H4.63672C4.38965 3.63574 4.20166 3.82373 4.20166 4.0708C4.20166 4.3125 4.38965 4.50049 4.63672 4.50049ZM2.2627 7.9917C2.63867 7.9917 2.93945 7.69092 2.93945 7.31494C2.93945 6.93896 2.63867 6.63818 2.2627 6.63818C1.88672 6.63818 1.58594 6.93896 1.58594 7.31494C1.58594 7.69092 1.88672 7.9917 2.2627 7.9917ZM4.63672 7.75H11.9736C12.2153 7.75 12.4087 7.55664 12.4087 7.31494C12.4087 7.07324 12.2153 6.88525 11.9736 6.88525H4.63672C4.38965 6.88525 4.20166 7.07324 4.20166 7.31494C4.20166 7.55664 4.38965 7.75 4.63672 7.75ZM2.2627 11.2412C2.63867 11.2412 2.93945 10.9351 2.93945 10.5645C2.93945 10.1885 2.63867 9.8877 2.2627 9.8877C1.88672 9.8877 1.58594 10.1885 1.58594 10.5645C1.58594 10.9351 1.88672 11.2412 2.2627 11.2412ZM4.63672 10.9941H11.9736C12.2153 10.9941 12.4087 10.8062 12.4087 10.5645C12.4087 10.3174 12.2153 10.1294 11.9736 10.1294H4.63672C4.38965 10.1294 4.20166 10.3174 4.20166 10.5645C4.20166 10.8062 4.38965 10.9941 4.63672 10.9941Z" fill="#007AFF"/>
</svg>
