<svg width="14" height="14" viewBox="0 0 14 14" fill="none" xmlns="http://www.w3.org/2000/svg">
<path d="M3.00391 10.457H3.92236V11.2788C3.92236 12.3853 4.48096 12.9438 5.60889 12.9438H11.0015C12.1187 12.9438 12.6826 12.3853 12.6826 11.2788V5.84326C12.6826 4.73682 12.1187 4.17822 11.0015 4.17822H10.0776V3.35645C10.0776 2.25 9.51367 1.69141 8.39648 1.69141H3.00391C1.87598 1.69141 1.31738 2.25 1.31738 3.35645V8.79199C1.31738 9.89844 1.87598 10.457 3.00391 10.457ZM3.01465 9.59229C2.47754 9.59229 2.18213 9.30225 2.18213 8.74365V3.40479C2.18213 2.84619 2.47754 2.55615 3.01465 2.55615H8.38037C8.91211 2.55615 9.21289 2.84619 9.21289 3.40479V4.17822H5.60889C4.48096 4.17822 3.92236 4.73145 3.92236 5.84326V9.59229H3.01465ZM5.61963 12.0791C5.08789 12.0791 4.78711 11.7891 4.78711 11.2305V5.8916C4.78711 5.33301 5.08789 5.04297 5.61963 5.04297H10.9854C11.5171 5.04297 11.8179 5.33301 11.8179 5.8916V11.2305C11.8179 11.7891 11.5171 12.0791 10.9854 12.0791H5.61963Z" fill="#007AFF"/>
</svg>
