<svg width="14" height="14" viewBox="0 0 14 14" fill="none" xmlns="http://www.w3.org/2000/svg">
<path d="M2.354 13.395H11.646C12.7686 13.395 13.3325 12.8364 13.3325 11.73V8.99609C13.3325 8.80811 13.2573 8.62549 13.123 8.5127C13.2627 8.271 13.3325 7.96484 13.3325 7.59961V4.63477C13.3325 4.146 13.3003 3.81299 13.0264 3.55518L11.125 1.75586C10.5396 1.20801 10.1206 1.03613 9.32568 1.03613H4.67432C3.88477 1.03613 3.46045 1.20801 2.88037 1.75586L0.973633 3.55518C0.699707 3.81299 0.66748 4.146 0.66748 4.63477V7.59961C0.66748 7.96484 0.737305 8.271 0.876953 8.5127C0.742676 8.62549 0.66748 8.80811 0.66748 8.99609V11.73C0.66748 12.8364 1.23145 13.395 2.354 13.395ZM7 5.98828C6.24268 5.98828 5.75391 5.33301 5.75391 4.70996V4.68848C5.75391 4.46289 5.61963 4.25342 5.34033 4.25342H1.92969C1.62354 4.25342 1.52148 4.11377 1.76855 3.88281L3.54102 2.2124C3.86865 1.90625 4.0835 1.78809 4.59375 1.78809H9.40625C9.92188 1.78809 10.1313 1.90625 10.459 2.2124L12.2314 3.88281C12.4893 4.12451 12.3711 4.25342 12.0757 4.25342H8.65967C8.38037 4.25342 8.25146 4.46289 8.25146 4.68848V4.70996C8.25146 5.33301 7.7627 5.98828 7 5.98828ZM2.36475 8.3999C1.82764 8.3999 1.53223 8.10986 1.53223 7.55127V5.04297H4.9375C5.06641 6.04199 5.90967 6.78857 7 6.78857C8.09033 6.78857 8.93359 6.04199 9.0625 5.04297H12.4678V7.55127C12.4678 8.10986 12.167 8.3999 11.6353 8.3999H2.36475ZM7 10.1348C6.37695 10.1348 5.93652 9.68896 5.79688 9.18945H8.20312C8.06348 9.68896 7.62305 10.1348 7 10.1348ZM2.36475 12.5303C1.82764 12.5303 1.53223 12.2402 1.53223 11.6816V9.18945H4.9375C5.06641 10.1885 5.90967 10.9351 7 10.9351C8.09033 10.9351 8.93359 10.1885 9.0625 9.18945H12.4678V11.6816C12.4678 12.2402 12.167 12.5303 11.6353 12.5303H2.36475Z" fill="#007AFF"/>
</svg>
