<svg width="20" height="20" viewBox="0 0 20 20" fill="none" xmlns="http://www.w3.org/2000/svg">
<path d="M10.4067 17.3369C10.6226 17.3369 10.8052 17.2539 10.9463 17.1128L17.5205 10.688C17.6782 10.5303 17.7695 10.3394 17.7695 10.1318C17.7695 9.91602 17.6782 9.7085 17.5205 9.57568L10.9463 3.14258C10.7969 3.00146 10.6226 2.91846 10.4067 2.91846C9.9751 2.91846 9.64307 3.25049 9.64307 3.68213C9.64307 3.88135 9.73438 4.08057 9.86719 4.22168L15.9102 10.1318L9.86719 16.042C9.73438 16.1831 9.64307 16.374 9.64307 16.5815C9.64307 17.0132 9.9751 17.3369 10.4067 17.3369ZM2.98584 17.3369C3.20166 17.3369 3.38428 17.2539 3.53369 17.1128L10.1079 10.688C10.2656 10.5303 10.3486 10.3394 10.3486 10.1318C10.3486 9.91602 10.2656 9.7085 10.1079 9.57568L3.52539 3.14258C3.38428 3.00146 3.20166 2.91846 2.98584 2.91846C2.5542 2.91846 2.23047 3.25049 2.23047 3.68213C2.23047 3.88135 2.31348 4.08057 2.44629 4.22168L8.48926 10.1318L2.44629 16.042C2.31348 16.1831 2.23047 16.374 2.23047 16.5815C2.23047 17.0132 2.5542 17.3369 2.98584 17.3369Z" fill="black" fill-opacity="0.5"/>
</svg>
