<svg width="20" height="20" viewBox="0 0 20 20" fill="none" xmlns="http://www.w3.org/2000/svg">
<path d="M10 18.5986C14.6318 18.5986 18.4668 14.7554 18.4668 10.1318C18.4668 5.5 14.6235 1.66504 9.9917 1.66504C5.36816 1.66504 1.5332 5.5 1.5332 10.1318C1.5332 14.7554 5.37646 18.5986 10 18.5986ZM10 17.1875C6.08203 17.1875 2.95264 14.0498 2.95264 10.1318C2.95264 6.21387 6.07373 3.07617 9.9917 3.07617C13.9097 3.07617 17.0474 6.21387 17.0557 10.1318C17.064 14.0498 13.918 17.1875 10 17.1875ZM9.08691 14.0747C9.36084 14.0747 9.59326 13.9419 9.75928 13.6846L13.5527 7.71631C13.644 7.55859 13.752 7.36768 13.752 7.18506C13.752 6.81982 13.4199 6.5791 13.0713 6.5791C12.8638 6.5791 12.6562 6.70361 12.4985 6.95264L9.05371 12.4727L7.41846 10.3643C7.21924 10.0986 7.03662 10.0239 6.8042 10.0239C6.44727 10.0239 6.16504 10.3145 6.16504 10.688C6.16504 10.8623 6.23975 11.0449 6.35596 11.2026L8.38135 13.6846C8.58887 13.9585 8.81299 14.0747 9.08691 14.0747Z" fill="black" fill-opacity="0.5"/>
</svg>
