<svg width="32" height="20" viewBox="0 0 32 20" fill="none" xmlns="http://www.w3.org/2000/svg">
<path d="M6.19824 18.0757H13.8018C15.0469 18.0757 15.6611 17.4531 15.6611 16.1001V10.3809C15.6611 9.20215 15.188 8.57959 14.2251 8.44678V6.43799C14.2251 3.30859 12.1748 1.79785 10 1.79785C7.8252 1.79785 5.7749 3.30859 5.7749 6.43799V8.44678C4.81201 8.57959 4.33887 9.20215 4.33887 10.3809V16.1001C4.33887 17.4531 4.95312 18.0757 6.19824 18.0757ZM7.11133 6.26367C7.11133 4.18018 8.44775 3.07617 10 3.07617C11.5522 3.07617 12.8887 4.18018 12.8887 6.26367V8.42188H7.11133V6.26367ZM6.24805 16.8306C5.86621 16.8306 5.67529 16.6562 5.67529 16.1914V10.2979C5.67529 9.83301 5.86621 9.66699 6.24805 9.66699H13.7603C14.1421 9.66699 14.3247 9.83301 14.3247 10.2979V16.1914C14.3247 16.6562 14.1421 16.8306 13.7603 16.8306H6.24805Z" fill="black" fill-opacity="0.5"/>
<path d="M28.1211 11.875C28.2891 11.875 28.4336 11.8086 28.5625 11.6797L31.4883 8.67969C31.5898 8.57812 31.6445 8.45312 31.6445 8.30469C31.6445 8 31.4023 7.75781 31.1016 7.75781C30.9531 7.75781 30.8125 7.81641 30.7031 7.92578L28.125 10.582L25.543 7.92578C25.4336 7.82031 25.2969 7.75781 25.1445 7.75781C24.8438 7.75781 24.6016 8 24.6016 8.30469C24.6016 8.45312 24.6562 8.57812 24.7578 8.68359L27.6836 11.6797C27.8203 11.8125 27.957 11.875 28.1211 11.875Z" fill="black" fill-opacity="0.5"/>
</svg>
