<svg width="33" height="20" viewBox="0 0 33 20" fill="none" xmlns="http://www.w3.org/2000/svg">
<path d="M2.84863 14.9961H4.43408V16.2661C4.43408 17.9761 5.29736 18.8394 7.04053 18.8394H19.1514C20.8779 18.8394 21.7495 17.9761 21.7495 16.2661V7.86572C21.7495 6.15576 20.8779 5.29248 19.1514 5.29248H17.5576V4.02246C17.5576 2.3125 16.686 1.44922 14.9595 1.44922H2.84863C1.10547 1.44922 0.242188 2.3125 0.242188 4.02246V12.4229C0.242188 14.1328 1.10547 14.9961 2.84863 14.9961ZM2.86523 13.6597C2.03516 13.6597 1.57861 13.2114 1.57861 12.3481V4.09717C1.57861 3.23389 2.03516 2.78564 2.86523 2.78564H14.9346C15.7563 2.78564 16.2212 3.23389 16.2212 4.09717V5.29248H7.04053C5.29736 5.29248 4.43408 6.14746 4.43408 7.86572V13.6597H2.86523ZM5.77051 7.94043C5.77051 7.07715 6.22705 6.62891 7.05713 6.62891H19.1265C19.9482 6.62891 20.4131 7.07715 20.4131 7.94043V14.5479L17.4082 11.7007C17.0513 11.3687 16.6113 11.2026 16.1714 11.2026C15.7231 11.2026 15.3164 11.3604 14.9429 11.6924L11.2573 14.9629L9.77979 13.6348C9.43945 13.3276 9.06592 13.1616 8.67578 13.1616C8.31055 13.1616 7.97021 13.3193 7.62158 13.6265L5.77051 15.2285V7.94043ZM9.9209 11.9082C10.9751 11.9082 11.8467 11.0366 11.8467 9.96582C11.8467 8.91162 10.9751 8.03174 9.9209 8.03174C8.8501 8.03174 7.97852 8.91162 7.97852 9.96582C7.97852 11.0366 8.8501 11.9082 9.9209 11.9082Z" fill="black" fill-opacity="0.5"/>
<path d="M29.1211 11.875C29.2891 11.875 29.4336 11.8086 29.5625 11.6797L32.4883 8.67969C32.5898 8.57812 32.6445 8.45312 32.6445 8.30469C32.6445 8 32.4023 7.75781 32.1016 7.75781C31.9531 7.75781 31.8125 7.81641 31.7031 7.92578L29.125 10.582L26.543 7.92578C26.4336 7.82031 26.2969 7.75781 26.1445 7.75781C25.8438 7.75781 25.6016 8 25.6016 8.30469C25.6016 8.45312 25.6562 8.57812 25.7578 8.68359L28.6836 11.6797C28.8203 11.8125 28.957 11.875 29.1211 11.875Z" fill="black" fill-opacity="0.5"/>
</svg>
