<svg width="20" height="20" viewBox="0 0 20 20" fill="none" xmlns="http://www.w3.org/2000/svg">
<path d="M18.2593 3.3252L18.8569 2.71094C19.1392 2.41211 19.1392 2.01367 18.8569 1.73975L18.666 1.54053C18.4087 1.2832 18.002 1.31641 17.728 1.58203L17.1221 2.17969L18.2593 3.3252ZM8.27344 12.3813L9.89209 11.6758L17.645 3.93115L16.5078 2.81055L8.76318 10.5552L8.01611 12.1157C7.94971 12.2568 8.11572 12.4478 8.27344 12.3813ZM5.25195 17.7603H14.9971C16.4912 17.7603 17.3545 16.897 17.3545 15.187V6.31348L16.0181 7.6499V15.1206C16.0181 15.9839 15.5532 16.4238 14.9805 16.4238H5.27686C4.44678 16.4238 3.98193 15.9839 3.98193 15.1206V5.69922C3.98193 4.83594 4.44678 4.3877 5.27686 4.3877H12.8389L14.1753 3.05127H5.25195C3.52539 3.05127 2.64551 3.91455 2.64551 5.62451V15.187C2.64551 16.9053 3.52539 17.7603 5.25195 17.7603Z" fill="black" fill-opacity="0.5"/>
</svg>
