<svg width="20" height="20" viewBox="0 0 20 20" fill="none" xmlns="http://www.w3.org/2000/svg">
<path d="M2.67871 6.16406C3.25977 6.16406 3.72461 5.69922 3.72461 5.12646C3.72461 4.54541 3.25977 4.08057 2.67871 4.08057C2.09766 4.08057 1.63281 4.54541 1.63281 5.12646C1.63281 5.69922 2.09766 6.16406 2.67871 6.16406ZM6.34766 5.79053H17.6865C18.0601 5.79053 18.3589 5.5 18.3589 5.12646C18.3589 4.74463 18.0601 4.4541 17.6865 4.4541H6.34766C5.96582 4.4541 5.67529 4.74463 5.67529 5.12646C5.67529 5.5 5.96582 5.79053 6.34766 5.79053ZM2.67871 11.186C3.25977 11.186 3.72461 10.7212 3.72461 10.1401C3.72461 9.55908 3.25977 9.09424 2.67871 9.09424C2.09766 9.09424 1.63281 9.55908 1.63281 10.1401C1.63281 10.7212 2.09766 11.186 2.67871 11.186ZM6.34766 10.8125H17.6865C18.0601 10.8125 18.3589 10.5137 18.3589 10.1401C18.3589 9.7666 18.0601 9.47607 17.6865 9.47607H6.34766C5.96582 9.47607 5.67529 9.7666 5.67529 10.1401C5.67529 10.5137 5.96582 10.8125 6.34766 10.8125ZM2.67871 16.208C3.25977 16.208 3.72461 15.7349 3.72461 15.1621C3.72461 14.5811 3.25977 14.1162 2.67871 14.1162C2.09766 14.1162 1.63281 14.5811 1.63281 15.1621C1.63281 15.7349 2.09766 16.208 2.67871 16.208ZM6.34766 15.8262H17.6865C18.0601 15.8262 18.3589 15.5356 18.3589 15.1621C18.3589 14.7803 18.0601 14.4897 17.6865 14.4897H6.34766C5.96582 14.4897 5.67529 14.7803 5.67529 15.1621C5.67529 15.5356 5.96582 15.8262 6.34766 15.8262Z" fill="black" fill-opacity="0.5"/>
</svg>
