<svg width="20" height="20" viewBox="0 0 20 20" fill="none" xmlns="http://www.w3.org/2000/svg">
<path d="M2.81982 17.7852H17.1802C18.9233 17.7852 19.7866 16.9219 19.7866 15.2119V5.07666C19.7866 3.3667 18.9233 2.50342 17.1802 2.50342H2.81982C1.08496 2.50342 0.213379 3.3584 0.213379 5.07666V15.2119C0.213379 16.9302 1.08496 17.7852 2.81982 17.7852ZM1.5498 5.14307C1.5498 4.27979 2.00635 3.83984 2.83643 3.83984H9.33594V7.15186H1.5498V5.14307ZM17.1636 3.83984C17.9854 3.83984 18.4502 4.27979 18.4502 5.14307V7.15186H10.6724V3.83984H17.1636ZM1.5498 11.8003V8.48828H9.33594V11.8003H1.5498ZM10.6724 11.8003V8.48828H18.4502V11.8003H10.6724ZM2.83643 16.4487C2.00635 16.4487 1.5498 16.0088 1.5498 15.1455V13.1367H9.33594V16.4487H2.83643ZM18.4502 15.1455C18.4502 16.0088 17.9854 16.4487 17.1636 16.4487H10.6724V13.1367H18.4502V15.1455Z" fill="black" fill-opacity="0.5"/>
</svg>
