<svg width="20" height="21" viewBox="0 0 20 21" fill="none" xmlns="http://www.w3.org/2000/svg">
<path d="M6.50244 19.2651H14.1143C15.3013 19.2651 16.0981 18.4932 16.1562 17.3062L16.729 5.23682H17.7251C18.0654 5.23682 18.3477 4.94629 18.3477 4.60596C18.3477 4.26562 18.0654 3.9834 17.7251 3.9834H13.9316V2.71338C13.9316 1.50977 13.1514 0.779297 11.873 0.779297H8.72705C7.44873 0.779297 6.66846 1.50977 6.66846 2.71338V3.9834H2.8916C2.55957 3.9834 2.26904 4.26562 2.26904 4.60596C2.26904 4.95459 2.55957 5.23682 2.8916 5.23682H3.8877L4.46045 17.3145C4.51855 18.5015 5.30713 19.2651 6.50244 19.2651ZM7.98828 2.79639C7.98828 2.32324 8.31201 2.01611 8.81006 2.01611H11.79C12.2881 2.01611 12.6118 2.32324 12.6118 2.79639V3.9834H7.98828V2.79639ZM6.61865 18.0117C6.14551 18.0117 5.78857 17.6548 5.76367 17.165L5.18262 5.23682H15.3926L14.853 17.165C14.8281 17.6631 14.4712 18.0117 13.9814 18.0117H6.61865ZM7.84717 16.5923C8.1626 16.5923 8.37012 16.3931 8.36182 16.1025L8.11279 7.2207C8.10449 6.93018 7.88867 6.73926 7.58984 6.73926C7.27441 6.73926 7.06689 6.93848 7.0752 7.229L7.33252 16.1025C7.34082 16.4014 7.54004 16.5923 7.84717 16.5923ZM10.3125 16.5923C10.6279 16.5923 10.8438 16.3931 10.8438 16.1025V7.229C10.8438 6.93848 10.6279 6.73926 10.3125 6.73926C9.99707 6.73926 9.77295 6.93848 9.77295 7.229V16.1025C9.77295 16.3931 9.99707 16.5923 10.3125 16.5923ZM12.7695 16.5923C13.0684 16.5923 13.2759 16.4014 13.2842 16.1025L13.5415 7.229C13.5498 6.93848 13.334 6.73926 13.0186 6.73926C12.728 6.73926 12.5122 6.93018 12.5039 7.229L12.2549 16.1025C12.2466 16.3931 12.4541 16.5923 12.7695 16.5923Z" fill="black" fill-opacity="0.5"/>
</svg>
