<svg width="20" height="20" viewBox="0 0 20 20" fill="none" xmlns="http://www.w3.org/2000/svg">
<path d="M1.02686 16.2329C1.4668 16.2329 1.68262 16.0669 1.84033 15.6104L2.91113 12.6719H7.80859L8.87939 15.6104C9.03711 16.0669 9.25293 16.2329 9.68457 16.2329C10.1245 16.2329 10.4067 15.9673 10.4067 15.5522C10.4067 15.4111 10.3818 15.2866 10.3154 15.104L6.42236 4.74463C6.23145 4.22998 5.89111 3.98096 5.35986 3.98096C4.84521 3.98096 4.49658 4.22998 4.31396 4.73633L0.420898 15.1123C0.354492 15.2949 0.32959 15.4194 0.32959 15.5605C0.32959 15.9756 0.595215 16.2329 1.02686 16.2329ZM3.31787 11.4185L5.33496 5.83203H5.37646L7.39355 11.4185H3.31787ZM15.271 16.3159C16.6904 16.3159 17.7695 15.6436 18.2759 14.4482H18.3257V15.627C18.3257 16.0586 18.5996 16.3242 18.9897 16.3242C19.3882 16.3242 19.6621 16.0503 19.6621 15.6187V7.74951C19.6621 7.32617 19.3882 7.02734 18.9897 7.02734C18.5996 7.02734 18.3257 7.32617 18.3257 7.74951V8.91992H18.2759C17.7695 7.74951 16.6406 7.04395 15.271 7.04395C13.0215 7.04395 11.519 8.91162 11.519 11.6841C11.519 14.4731 13.0215 16.3159 15.271 16.3159ZM15.603 15.104C13.9844 15.104 12.9551 13.7842 12.9551 11.6841C12.9551 9.58398 13.9844 8.25586 15.603 8.25586C17.2217 8.25586 18.2842 9.62549 18.2842 11.7007C18.2842 13.7759 17.2383 15.104 15.603 15.104Z" fill="black" fill-opacity="0.5"/>
</svg>
