<svg width="22" height="20" viewBox="0 0 22 20" fill="none" xmlns="http://www.w3.org/2000/svg">
<path d="M12 18.5986C16.6235 18.5986 20.4668 14.7554 20.4668 10.1318C20.4668 5.5 16.6152 1.66504 11.9917 1.66504C7.66699 1.66504 4.05615 4.99365 3.59131 9.20215C3.99805 9.12744 4.5874 9.09424 5.02734 9.14404C5.48389 5.69922 8.40576 3.07617 11.9917 3.07617C15.9014 3.07617 19.0557 6.21387 19.0557 10.1318C19.0557 11.958 18.375 13.6182 17.2378 14.855C16.4243 13.8838 14.4985 12.9541 11.9917 12.9541C11.1948 12.9541 10.4644 13.0537 9.80859 13.2114C9.9082 13.6099 9.95801 14.0415 9.95801 14.4648C9.95801 15.7598 9.48486 16.9634 8.68799 17.9014C9.70898 18.3496 10.8296 18.5986 12 18.5986ZM11.9917 11.543C13.5854 11.5596 14.8389 10.1982 14.8389 8.41357C14.8389 6.73682 13.5771 5.35059 11.9917 5.35059C10.3979 5.35059 9.12793 6.73682 9.14453 8.41357C9.15283 10.1982 10.3896 11.5264 11.9917 11.543ZM4.604 18.6899C6.88672 18.6899 8.8208 16.7808 8.8208 14.4731C8.8208 12.1572 6.91992 10.2563 4.604 10.2563C2.29639 10.2563 0.387207 12.1655 0.387207 14.4731C0.387207 16.7974 2.29639 18.6899 4.604 18.6899ZM4.604 17.2124C4.31348 17.2124 4.06445 17.0132 4.06445 16.6978V14.9795H2.4707C2.19678 14.9795 1.96436 14.7471 1.96436 14.4731C1.96436 14.1909 2.19678 13.9585 2.4707 13.9585H4.06445V12.2402C4.06445 11.9331 4.31348 11.7339 4.604 11.7339C4.89453 11.7339 5.15186 11.9331 5.15186 12.2402V13.9585H6.7373C7.01953 13.9585 7.24365 14.1909 7.24365 14.4731C7.24365 14.7471 7.01953 14.9795 6.7373 14.9795H5.15186V16.6978C5.15186 17.0132 4.89453 17.2124 4.604 17.2124Z" fill="black" fill-opacity="0.25"/>
</svg>
