<svg width="436" height="436" viewBox="0 0 436 436" fill="none" xmlns="http://www.w3.org/2000/svg">
<g filter="url(#filter0_d_4_67)">
<mask id="mask0_4_67" style="mask-type:alpha" maskUnits="userSpaceOnUse" x="12" y="6" width="412" height="412">
<rect x="12" y="6" width="412" height="412" rx="92" fill="url(#paint0_linear_4_67)"/>
</mask>
<g mask="url(#mask0_4_67)">
<rect x="12" y="6" width="412" height="412" rx="92" fill="url(#paint1_linear_4_67)"/>
<g filter="url(#filter1_i_4_67)">
<path fill-rule="evenodd" clip-rule="evenodd" d="M22.0274 52.2329C12 71.9128 12 97.6752 12 149.2V270.8C12 322.325 12 348.087 22.0274 367.767C30.8477 385.078 44.922 399.152 62.2329 407.973C81.9128 418 107.675 418 159.2 418H270C252 364 248 315 248 248H208.391C200.559 248 196.644 248 193.607 246.421C190.985 245.057 188.762 242.772 187.472 240.113C185.977 237.034 186.083 233.216 186.294 225.58C188.713 138.119 206.054 89.2897 238 6H276.8C328.325 6 354.087 6 373.767 16.0274C391.078 24.8477 405.152 38.922 413.973 56.2329C423.855 75.6276 423.998 100.93 424 150.976V149.2C424 97.6752 424 71.9128 413.973 52.2329C405.152 34.922 391.078 20.8477 373.767 12.0274C354.087 2 328.325 2 276.8 2H159.2C107.675 2 81.9128 2 62.2329 12.0274C44.922 20.8477 30.8477 34.922 22.0274 52.2329Z" fill="url(#paint2_linear_4_67)"/>
</g>
<g filter="url(#filter2_diii_4_67)">
<rect x="112" y="121.5" width="18" height="44" rx="7" fill="#464646"/>
</g>
<g filter="url(#filter3_i_4_67)">
<path d="M186.294 225.58C188.713 138.119 206.054 89.2897 238 6H276.8C328.325 6 354.087 6 373.767 16.0274C391.078 24.8477 405.152 38.922 413.973 56.2329C424 75.9128 424 101.675 424 153.2V270.8C424 322.325 424 348.087 413.973 367.767C405.152 385.078 391.078 399.152 373.767 407.973C354.087 418 328.325 418 276.8 418H270C252 364 248 315 248 248H208.391C200.559 248 196.644 248 193.607 246.421C190.985 245.057 188.762 242.772 187.472 240.113C185.977 237.034 186.083 233.216 186.294 225.58Z" fill="url(#paint3_linear_4_67)"/>
</g>
<mask id="mask1_4_67" style="mask-type:alpha" maskUnits="userSpaceOnUse" x="186" y="-20" width="68" height="270">
<path d="M186 -20C223.279 -20 253.5 10.2208 253.5 47.5V250H186V-20Z" fill="#C4C4C4"/>
</mask>
<g mask="url(#mask1_4_67)">
<g filter="url(#filter4_i_4_67)">
<path d="M186.294 225.58C188.713 138.119 206.054 89.2897 238 6H276.8C328.325 6 354.087 6 373.767 16.0274C391.078 24.8477 405.152 38.922 413.973 56.2329C424 75.9128 424 101.675 424 153.2V270.8C424 322.325 424 348.087 413.973 367.767C405.152 385.078 391.078 399.152 373.767 407.973C354.087 418 328.325 418 276.8 418H270C252 364 248 315 248 248H208.391C200.559 248 196.644 248 193.607 246.421C190.985 245.057 188.762 242.772 187.472 240.113C185.977 237.034 186.083 233.216 186.294 225.58Z" fill="url(#paint4_linear_4_67)" fill-opacity="0.01"/>
</g>
</g>
<g filter="url(#filter5_diii_4_67)">
<rect x="306" y="121.5" width="18" height="44" rx="7" fill="#464646"/>
</g>
<g filter="url(#filter6_diii_4_67)">
<path fill-rule="evenodd" clip-rule="evenodd" d="M92.441 280.177C95.057 277.521 99.3308 277.488 101.987 280.104C117.889 295.767 132.727 307.573 150.462 315.543C168.162 323.498 189.209 327.837 217.75 327.837C246.291 327.837 267.338 323.498 285.038 315.543C302.773 307.573 317.611 295.767 333.513 280.104C336.169 277.488 340.443 277.521 343.059 280.177C345.675 282.833 345.643 287.106 342.987 289.722C326.536 305.926 310.375 318.957 290.572 327.857C270.735 336.772 247.709 341.337 217.75 341.337C187.791 341.337 164.765 336.772 144.928 327.857C125.125 318.957 108.964 305.926 92.5133 289.722C89.8574 287.106 89.825 282.833 92.441 280.177Z" fill="#464646"/>
</g>
</g>
</g>
<defs>
<filter id="filter0_d_4_67" x="0.375" y="0.375" width="435.25" height="435.25" filterUnits="userSpaceOnUse" color-interpolation-filters="sRGB">
<feFlood flood-opacity="0" result="BackgroundImageFix"/>
<feColorMatrix in="SourceAlpha" type="matrix" values="0 0 0 0 0 0 0 0 0 0 0 0 0 0 0 0 0 0 127 0" result="hardAlpha"/>
<feOffset dy="6"/>
<feGaussianBlur stdDeviation="5.8125"/>
<feComposite in2="hardAlpha" operator="out"/>
<feColorMatrix type="matrix" values="0 0 0 0 0 0 0 0 0 0 0 0 0 0 0 0 0 0 0.25 0"/>
<feBlend mode="normal" in2="BackgroundImageFix" result="effect1_dropShadow_4_67"/>
<feBlend mode="normal" in="SourceGraphic" in2="effect1_dropShadow_4_67" result="shape"/>
</filter>
<filter id="filter1_i_4_67" x="10" y="2" width="414" height="418" filterUnits="userSpaceOnUse" color-interpolation-filters="sRGB">
<feFlood flood-opacity="0" result="BackgroundImageFix"/>
<feBlend mode="normal" in="SourceGraphic" in2="BackgroundImageFix" result="shape"/>
<feColorMatrix in="SourceAlpha" type="matrix" values="0 0 0 0 0 0 0 0 0 0 0 0 0 0 0 0 0 0 127 0" result="hardAlpha"/>
<feOffset dx="-2" dy="2"/>
<feGaussianBlur stdDeviation="2.5"/>
<feComposite in2="hardAlpha" operator="arithmetic" k2="-1" k3="1"/>
<feColorMatrix type="matrix" values="0 0 0 0 0.141176 0 0 0 0 0.301961 0 0 0 0 0.486275 0 0 0 0.69 0"/>
<feBlend mode="normal" in2="shape" result="effect1_innerShadow_4_67"/>
</filter>
<filter id="filter2_diii_4_67" x="109.5" y="120" width="23" height="49" filterUnits="userSpaceOnUse" color-interpolation-filters="sRGB">
<feFlood flood-opacity="0" result="BackgroundImageFix"/>
<feColorMatrix in="SourceAlpha" type="matrix" values="0 0 0 0 0 0 0 0 0 0 0 0 0 0 0 0 0 0 127 0" result="hardAlpha"/>
<feOffset dy="1"/>
<feGaussianBlur stdDeviation="1.25"/>
<feComposite in2="hardAlpha" operator="out"/>
<feColorMatrix type="matrix" values="0 0 0 0 0 0 0 0 0 0 0 0 0 0 0 0 0 0 0.25 0"/>
<feBlend mode="normal" in2="BackgroundImageFix" result="effect1_dropShadow_4_67"/>
<feBlend mode="normal" in="SourceGraphic" in2="effect1_dropShadow_4_67" result="shape"/>
<feColorMatrix in="SourceAlpha" type="matrix" values="0 0 0 0 0 0 0 0 0 0 0 0 0 0 0 0 0 0 127 0" result="hardAlpha"/>
<feMorphology radius="5.5" operator="dilate" in="SourceAlpha" result="effect2_innerShadow_4_67"/>
<feOffset dy="-10.5"/>
<feGaussianBlur stdDeviation="3.25"/>
<feComposite in2="hardAlpha" operator="arithmetic" k2="-1" k3="1"/>
<feColorMatrix type="matrix" values="0 0 0 0 0.478431 0 0 0 0 0.501961 0 0 0 0 0.509804 0 0 0 1 0"/>
<feBlend mode="normal" in2="shape" result="effect2_innerShadow_4_67"/>
<feColorMatrix in="SourceAlpha" type="matrix" values="0 0 0 0 0 0 0 0 0 0 0 0 0 0 0 0 0 0 127 0" result="hardAlpha"/>
<feMorphology radius="1.5" operator="erode" in="SourceAlpha" result="effect3_innerShadow_4_67"/>
<feOffset dy="0.5"/>
<feGaussianBlur stdDeviation="2"/>
<feComposite in2="hardAlpha" operator="arithmetic" k2="-1" k3="1"/>
<feColorMatrix type="matrix" values="0 0 0 0 0 0 0 0 0 0 0 0 0 0 0 0 0 0 1 0"/>
<feBlend mode="normal" in2="effect2_innerShadow_4_67" result="effect3_innerShadow_4_67"/>
<feColorMatrix in="SourceAlpha" type="matrix" values="0 0 0 0 0 0 0 0 0 0 0 0 0 0 0 0 0 0 127 0" result="hardAlpha"/>
<feMorphology radius="1.5" operator="erode" in="SourceAlpha" result="effect4_innerShadow_4_67"/>
<feOffset dy="0.5"/>
<feGaussianBlur stdDeviation="2"/>
<feComposite in2="hardAlpha" operator="arithmetic" k2="-1" k3="1"/>
<feColorMatrix type="matrix" values="0 0 0 0 0 0 0 0 0 0 0 0 0 0 0 0 0 0 0.6 0"/>
<feBlend mode="normal" in2="effect3_innerShadow_4_67" result="effect4_innerShadow_4_67"/>
</filter>
<filter id="filter3_i_4_67" x="186.172" y="6" width="239.828" height="412" filterUnits="userSpaceOnUse" color-interpolation-filters="sRGB">
<feFlood flood-opacity="0" result="BackgroundImageFix"/>
<feBlend mode="normal" in="SourceGraphic" in2="BackgroundImageFix" result="shape"/>
<feColorMatrix in="SourceAlpha" type="matrix" values="0 0 0 0 0 0 0 0 0 0 0 0 0 0 0 0 0 0 127 0" result="hardAlpha"/>
<feOffset dx="3"/>
<feGaussianBlur stdDeviation="1"/>
<feComposite in2="hardAlpha" operator="arithmetic" k2="-1" k3="1"/>
<feColorMatrix type="matrix" values="0 0 0 0 1 0 0 0 0 1 0 0 0 0 1 0 0 0 0.5 0"/>
<feBlend mode="normal" in2="shape" result="effect1_innerShadow_4_67"/>
</filter>
<filter id="filter4_i_4_67" x="184.172" y="5" width="239.828" height="413" filterUnits="userSpaceOnUse" color-interpolation-filters="sRGB">
<feFlood flood-opacity="0" result="BackgroundImageFix"/>
<feBlend mode="normal" in="SourceGraphic" in2="BackgroundImageFix" result="shape"/>
<feColorMatrix in="SourceAlpha" type="matrix" values="0 0 0 0 0 0 0 0 0 0 0 0 0 0 0 0 0 0 127 0" result="hardAlpha"/>
<feOffset dx="-2" dy="-1"/>
<feGaussianBlur stdDeviation="2"/>
<feComposite in2="hardAlpha" operator="arithmetic" k2="-1" k3="1"/>
<feColorMatrix type="matrix" values="0 0 0 0 0 0 0 0 0 0 0 0 0 0 0 0 0 0 0.38 0"/>
<feBlend mode="normal" in2="shape" result="effect1_innerShadow_4_67"/>
</filter>
<filter id="filter5_diii_4_67" x="303.5" y="120" width="23" height="49" filterUnits="userSpaceOnUse" color-interpolation-filters="sRGB">
<feFlood flood-opacity="0" result="BackgroundImageFix"/>
<feColorMatrix in="SourceAlpha" type="matrix" values="0 0 0 0 0 0 0 0 0 0 0 0 0 0 0 0 0 0 127 0" result="hardAlpha"/>
<feOffset dy="1"/>
<feGaussianBlur stdDeviation="1.25"/>
<feComposite in2="hardAlpha" operator="out"/>
<feColorMatrix type="matrix" values="0 0 0 0 0 0 0 0 0 0 0 0 0 0 0 0 0 0 0.25 0"/>
<feBlend mode="normal" in2="BackgroundImageFix" result="effect1_dropShadow_4_67"/>
<feBlend mode="normal" in="SourceGraphic" in2="effect1_dropShadow_4_67" result="shape"/>
<feColorMatrix in="SourceAlpha" type="matrix" values="0 0 0 0 0 0 0 0 0 0 0 0 0 0 0 0 0 0 127 0" result="hardAlpha"/>
<feMorphology radius="5.5" operator="dilate" in="SourceAlpha" result="effect2_innerShadow_4_67"/>
<feOffset dy="-10.5"/>
<feGaussianBlur stdDeviation="3.25"/>
<feComposite in2="hardAlpha" operator="arithmetic" k2="-1" k3="1"/>
<feColorMatrix type="matrix" values="0 0 0 0 0.478431 0 0 0 0 0.501961 0 0 0 0 0.509804 0 0 0 1 0"/>
<feBlend mode="normal" in2="shape" result="effect2_innerShadow_4_67"/>
<feColorMatrix in="SourceAlpha" type="matrix" values="0 0 0 0 0 0 0 0 0 0 0 0 0 0 0 0 0 0 127 0" result="hardAlpha"/>
<feMorphology radius="1.5" operator="erode" in="SourceAlpha" result="effect3_innerShadow_4_67"/>
<feOffset dy="0.5"/>
<feGaussianBlur stdDeviation="2"/>
<feComposite in2="hardAlpha" operator="arithmetic" k2="-1" k3="1"/>
<feColorMatrix type="matrix" values="0 0 0 0 0 0 0 0 0 0 0 0 0 0 0 0 0 0 1 0"/>
<feBlend mode="normal" in2="effect2_innerShadow_4_67" result="effect3_innerShadow_4_67"/>
<feColorMatrix in="SourceAlpha" type="matrix" values="0 0 0 0 0 0 0 0 0 0 0 0 0 0 0 0 0 0 127 0" result="hardAlpha"/>
<feMorphology radius="1.5" operator="erode" in="SourceAlpha" result="effect4_innerShadow_4_67"/>
<feOffset dy="0.5"/>
<feGaussianBlur stdDeviation="2"/>
<feComposite in2="hardAlpha" operator="arithmetic" k2="-1" k3="1"/>
<feColorMatrix type="matrix" values="0 0 0 0 0 0 0 0 0 0 0 0 0 0 0 0 0 0 0.6 0"/>
<feBlend mode="normal" in2="effect3_innerShadow_4_67" result="effect4_innerShadow_4_67"/>
</filter>
<filter id="filter6_diii_4_67" x="88" y="274.163" width="259.5" height="72.6734" filterUnits="userSpaceOnUse" color-interpolation-filters="sRGB">
<feFlood flood-opacity="0" result="BackgroundImageFix"/>
<feColorMatrix in="SourceAlpha" type="matrix" values="0 0 0 0 0 0 0 0 0 0 0 0 0 0 0 0 0 0 127 0" result="hardAlpha"/>
<feOffset dy="1"/>
<feGaussianBlur stdDeviation="1.25"/>
<feComposite in2="hardAlpha" operator="out"/>
<feColorMatrix type="matrix" values="0 0 0 0 0 0 0 0 0 0 0 0 0 0 0 0 0 0 0.25 0"/>
<feBlend mode="normal" in2="BackgroundImageFix" result="effect1_dropShadow_4_67"/>
<feBlend mode="normal" in="SourceGraphic" in2="effect1_dropShadow_4_67" result="shape"/>
<feColorMatrix in="SourceAlpha" type="matrix" values="0 0 0 0 0 0 0 0 0 0 0 0 0 0 0 0 0 0 127 0" result="hardAlpha"/>
<feMorphology radius="5.5" operator="dilate" in="SourceAlpha" result="effect2_innerShadow_4_67"/>
<feOffset dy="-2.5"/>
<feGaussianBlur stdDeviation="5.75"/>
<feComposite in2="hardAlpha" operator="arithmetic" k2="-1" k3="1"/>
<feColorMatrix type="matrix" values="0 0 0 0 0.478431 0 0 0 0 0.501961 0 0 0 0 0.509804 0 0 0 1 0"/>
<feBlend mode="normal" in2="shape" result="effect2_innerShadow_4_67"/>
<feColorMatrix in="SourceAlpha" type="matrix" values="0 0 0 0 0 0 0 0 0 0 0 0 0 0 0 0 0 0 127 0" result="hardAlpha"/>
<feMorphology radius="1.5" operator="erode" in="SourceAlpha" result="effect3_innerShadow_4_67"/>
<feOffset dy="6.5"/>
<feGaussianBlur stdDeviation="2"/>
<feComposite in2="hardAlpha" operator="arithmetic" k2="-1" k3="1"/>
<feColorMatrix type="matrix" values="0 0 0 0 0 0 0 0 0 0 0 0 0 0 0 0 0 0 1 0"/>
<feBlend mode="normal" in2="effect2_innerShadow_4_67" result="effect3_innerShadow_4_67"/>
<feColorMatrix in="SourceAlpha" type="matrix" values="0 0 0 0 0 0 0 0 0 0 0 0 0 0 0 0 0 0 127 0" result="hardAlpha"/>
<feMorphology radius="1.5" operator="erode" in="SourceAlpha" result="effect4_innerShadow_4_67"/>
<feOffset dy="-4"/>
<feGaussianBlur stdDeviation="2"/>
<feComposite in2="hardAlpha" operator="arithmetic" k2="-1" k3="1"/>
<feColorMatrix type="matrix" values="0 0 0 0 0 0 0 0 0 0 0 0 0 0 0 0 0 0 0.6 0"/>
<feBlend mode="normal" in2="effect3_innerShadow_4_67" result="effect4_innerShadow_4_67"/>
</filter>
<linearGradient id="paint0_linear_4_67" x1="218" y1="6" x2="218" y2="418" gradientUnits="userSpaceOnUse">
<stop offset="0.0806791" stop-color="#5FC7F7"/>
<stop offset="1" stop-color="#386FEA"/>
</linearGradient>
<linearGradient id="paint1_linear_4_67" x1="218" y1="6" x2="218" y2="418" gradientUnits="userSpaceOnUse">
<stop offset="0.0806791" stop-color="#5FC7F7"/>
<stop offset="1" stop-color="#386FEA"/>
</linearGradient>
<linearGradient id="paint2_linear_4_67" x1="218" y1="6" x2="218" y2="418" gradientUnits="userSpaceOnUse">
<stop offset="0.0806791" stop-color="#5FC7F7"/>
<stop offset="1" stop-color="#386FEA"/>
</linearGradient>
<linearGradient id="paint3_linear_4_67" x1="305" y1="6" x2="305" y2="418" gradientUnits="userSpaceOnUse">
<stop stop-color="#EFF0F1"/>
<stop offset="1" stop-color="#D6DCE6"/>
</linearGradient>
<linearGradient id="paint4_linear_4_67" x1="305" y1="6" x2="305" y2="418" gradientUnits="userSpaceOnUse">
<stop stop-color="#EFF0F1"/>
<stop offset="1" stop-color="#D6DCE6"/>
</linearGradient>
</defs>
</svg>
