<svg width="25" height="24" viewBox="0 0 25 24" fill="none" xmlns="http://www.w3.org/2000/svg">
<g filter="url(#filter0_d_45_4071)">
<path d="M9.34375 17.75H15.0156C15.6354 17.75 16.1979 17.6146 16.7031 17.3438C17.2083 17.0781 17.6094 16.7031 17.9062 16.2188C18.2083 15.7396 18.3594 15.1797 18.3594 14.5391C18.3594 13.8984 18.2083 13.3385 17.9062 12.8594C17.6094 12.375 17.2083 12 16.7031 11.7344C16.1979 11.4635 15.6354 11.3281 15.0156 11.3281H9.34375C8.72396 11.3281 8.16146 11.4635 7.65625 11.7344C7.15104 12 6.7474 12.375 6.44531 12.8594C6.14844 13.3385 6 13.8984 6 14.5391C6 15.1797 6.14844 15.7396 6.44531 16.2188C6.7474 16.7031 7.15104 17.0781 7.65625 17.3438C8.16146 17.6146 8.72396 17.75 9.34375 17.75ZM15.2188 16.5703C14.8438 16.5651 14.5026 16.4714 14.1953 16.2891C13.888 16.1068 13.6432 15.862 13.4609 15.5547C13.2839 15.2474 13.1953 14.9062 13.1953 14.5312C13.1953 14.1615 13.2839 13.8229 13.4609 13.5156C13.6432 13.2083 13.888 12.9635 14.1953 12.7812C14.5026 12.599 14.8438 12.5078 15.2188 12.5078C15.5938 12.5078 15.9349 12.599 16.2422 12.7812C16.5547 12.9635 16.8021 13.2083 16.9844 13.5156C17.1667 13.8177 17.2552 14.1536 17.25 14.5234C17.25 14.8984 17.1562 15.2422 16.9688 15.5547C16.7865 15.8672 16.5417 16.1146 16.2344 16.2969C15.9323 16.4792 15.5938 16.5703 15.2188 16.5703ZM9.66406 10.125H14.7031C15.3698 10.125 15.9792 9.97656 16.5312 9.67969C17.0885 9.38281 17.5312 8.96615 17.8594 8.42969C18.1927 7.89323 18.3594 7.27083 18.3594 6.5625C18.3594 5.85417 18.1927 5.23177 17.8594 4.69531C17.5312 4.15885 17.0885 3.74219 16.5312 3.44531C15.9792 3.14844 15.3698 3 14.7031 3H9.66406C8.99219 3 8.3776 3.14844 7.82031 3.44531C7.26823 3.74219 6.82552 4.15885 6.49219 4.69531C6.16406 5.23177 6 5.85417 6 6.5625C6 7.27083 6.16406 7.89323 6.49219 8.42969C6.82552 8.96615 7.26823 9.38281 7.82031 9.67969C8.3776 9.97656 8.99219 10.125 9.66406 10.125ZM9.66406 8.94531C9.22656 8.94531 8.81771 8.84635 8.4375 8.64844C8.0625 8.44531 7.75781 8.16667 7.52344 7.8125C7.29427 7.45312 7.17969 7.03646 7.17969 6.5625C7.17969 6.08854 7.29427 5.67448 7.52344 5.32031C7.75781 4.96094 8.0625 4.68229 8.4375 4.48438C8.81771 4.28125 9.22656 4.17969 9.66406 4.17969H14.7031C15.1354 4.17969 15.5391 4.28125 15.9141 4.48438C16.2943 4.68229 16.599 4.96094 16.8281 5.32031C17.0625 5.67448 17.1797 6.08854 17.1797 6.5625C17.1797 7.03646 17.0625 7.45312 16.8281 7.8125C16.599 8.16667 16.2943 8.44531 15.9141 8.64844C15.5391 8.84635 15.1354 8.94531 14.7031 8.94531H9.66406ZM9.66406 8.41406C10.0078 8.41927 10.3177 8.33854 10.5938 8.17188C10.875 8 11.099 7.77344 11.2656 7.49219C11.4375 7.20573 11.5234 6.89062 11.5234 6.54688C11.5286 6.20312 11.4479 5.89323 11.2812 5.61719C11.1146 5.33594 10.888 5.11458 10.6016 4.95312C10.3203 4.78646 10.0078 4.70312 9.66406 4.70312C9.32031 4.70312 9.00781 4.78646 8.72656 4.95312C8.44531 5.11979 8.22135 5.34375 8.05469 5.625C7.89323 5.90625 7.8125 6.21615 7.8125 6.55469C7.8125 6.89844 7.89323 7.21094 8.05469 7.49219C8.22135 7.77344 8.44531 7.9974 8.72656 8.16406C9.00781 8.33073 9.32031 8.41406 9.66406 8.41406Z" fill="white" fill-opacity="0.9"/>
</g>
<defs>
<filter id="filter0_d_45_4071" x="0" y="-1" width="24.3594" height="26.75" filterUnits="userSpaceOnUse" color-interpolation-filters="sRGB">
<feFlood flood-opacity="0" result="BackgroundImageFix"/>
<feColorMatrix in="SourceAlpha" type="matrix" values="0 0 0 0 0 0 0 0 0 0 0 0 0 0 0 0 0 0 127 0" result="hardAlpha"/>
<feOffset dy="2"/>
<feGaussianBlur stdDeviation="3"/>
<feColorMatrix type="matrix" values="0 0 0 0 0 0 0 0 0 0 0 0 0 0 0 0 0 0 0.15 0"/>
<feBlend mode="normal" in2="BackgroundImageFix" result="effect1_dropShadow_45_4071"/>
<feBlend mode="normal" in="SourceGraphic" in2="effect1_dropShadow_45_4071" result="shape"/>
</filter>
</defs>
</svg>
